<mxfile host="app.diagrams.net" modified="2023-10-23T20:19:38.198Z" agent="Mozilla/5.0 (Windows NT 10.0; Win64; x64) AppleWebKit/537.36 (KHTML, like Gecko) Chrome/118.0.0.0 Safari/537.36" etag="_YaqIZ9HwLBxFGN901v4" version="22.0.6" type="github">
  <diagram name="Página-1" id="29nsO5dNZJTcKLzGv9PE">
    <mxGraphModel dx="1290" dy="625" grid="1" gridSize="10" guides="1" tooltips="1" connect="1" arrows="1" fold="1" page="1" pageScale="1" pageWidth="827" pageHeight="1169" math="0" shadow="0">
      <root>
        <mxCell id="0" />
        <mxCell id="1" parent="0" />
        <mxCell id="S1r_7dUT1iqmqCOqu-Z2-2" value="Ensaios em Voo" style="swimlane;horizontal=0;whiteSpace=wrap;html=1;" parent="1" vertex="1">
          <mxGeometry x="60" y="30" width="970" height="390" as="geometry" />
        </mxCell>
        <mxCell id="oQ0Vf-gEsFm0dpcl0Elq-2" value="" style="edgeStyle=orthogonalEdgeStyle;rounded=0;orthogonalLoop=1;jettySize=auto;html=1;entryX=0;entryY=0.5;entryDx=0;entryDy=0;" edge="1" parent="S1r_7dUT1iqmqCOqu-Z2-2" source="S1r_7dUT1iqmqCOqu-Z2-1" target="oQ0Vf-gEsFm0dpcl0Elq-5">
          <mxGeometry relative="1" as="geometry">
            <mxPoint x="369" y="155" as="targetPoint" />
          </mxGeometry>
        </mxCell>
        <mxCell id="S1r_7dUT1iqmqCOqu-Z2-1" value="Planejar o Ensaio em Voo" style="rounded=1;whiteSpace=wrap;html=1;" parent="S1r_7dUT1iqmqCOqu-Z2-2" vertex="1">
          <mxGeometry x="309" y="57" width="120" height="60" as="geometry" />
        </mxCell>
        <mxCell id="oQ0Vf-gEsFm0dpcl0Elq-33" style="edgeStyle=orthogonalEdgeStyle;rounded=0;orthogonalLoop=1;jettySize=auto;html=1;entryX=0;entryY=0.5;entryDx=0;entryDy=0;" edge="1" parent="S1r_7dUT1iqmqCOqu-Z2-2" source="S1r_7dUT1iqmqCOqu-Z2-3" target="oQ0Vf-gEsFm0dpcl0Elq-32">
          <mxGeometry relative="1" as="geometry" />
        </mxCell>
        <mxCell id="S1r_7dUT1iqmqCOqu-Z2-3" value="" style="ellipse;whiteSpace=wrap;html=1;aspect=fixed;" parent="S1r_7dUT1iqmqCOqu-Z2-2" vertex="1">
          <mxGeometry x="70" y="72" width="30" height="30" as="geometry" />
        </mxCell>
        <mxCell id="S1r_7dUT1iqmqCOqu-Z2-5" value="Solicitação de Vôo" style="text;html=1;strokeColor=none;fillColor=none;align=center;verticalAlign=middle;whiteSpace=wrap;rounded=0;" parent="S1r_7dUT1iqmqCOqu-Z2-2" vertex="1">
          <mxGeometry x="52.5" y="117" width="65" height="18" as="geometry" />
        </mxCell>
        <mxCell id="oQ0Vf-gEsFm0dpcl0Elq-9" style="edgeStyle=orthogonalEdgeStyle;rounded=0;orthogonalLoop=1;jettySize=auto;html=1;exitX=0.5;exitY=1;exitDx=0;exitDy=0;" edge="1" parent="S1r_7dUT1iqmqCOqu-Z2-2" source="oQ0Vf-gEsFm0dpcl0Elq-5">
          <mxGeometry relative="1" as="geometry">
            <mxPoint x="379" y="120" as="targetPoint" />
            <Array as="points">
              <mxPoint x="509" y="170" />
              <mxPoint x="379" y="170" />
            </Array>
          </mxGeometry>
        </mxCell>
        <mxCell id="oQ0Vf-gEsFm0dpcl0Elq-10" value="Não" style="edgeLabel;html=1;align=center;verticalAlign=middle;resizable=0;points=[];" vertex="1" connectable="0" parent="oQ0Vf-gEsFm0dpcl0Elq-9">
          <mxGeometry x="-0.5991" y="-2" relative="1" as="geometry">
            <mxPoint x="2" y="-23" as="offset" />
          </mxGeometry>
        </mxCell>
        <mxCell id="oQ0Vf-gEsFm0dpcl0Elq-12" style="edgeStyle=orthogonalEdgeStyle;rounded=0;orthogonalLoop=1;jettySize=auto;html=1;entryX=0;entryY=0.5;entryDx=0;entryDy=0;" edge="1" parent="S1r_7dUT1iqmqCOqu-Z2-2" source="oQ0Vf-gEsFm0dpcl0Elq-5" target="oQ0Vf-gEsFm0dpcl0Elq-11">
          <mxGeometry relative="1" as="geometry" />
        </mxCell>
        <mxCell id="oQ0Vf-gEsFm0dpcl0Elq-13" value="Sim" style="edgeLabel;html=1;align=center;verticalAlign=middle;resizable=0;points=[];" vertex="1" connectable="0" parent="oQ0Vf-gEsFm0dpcl0Elq-12">
          <mxGeometry x="-0.3771" y="-1" relative="1" as="geometry">
            <mxPoint as="offset" />
          </mxGeometry>
        </mxCell>
        <mxCell id="oQ0Vf-gEsFm0dpcl0Elq-5" value="" style="rhombus;whiteSpace=wrap;html=1;" vertex="1" parent="S1r_7dUT1iqmqCOqu-Z2-2">
          <mxGeometry x="489" y="67" width="40" height="40" as="geometry" />
        </mxCell>
        <mxCell id="oQ0Vf-gEsFm0dpcl0Elq-8" value="Validado?" style="text;html=1;strokeColor=none;fillColor=none;align=center;verticalAlign=middle;whiteSpace=wrap;rounded=0;" vertex="1" parent="S1r_7dUT1iqmqCOqu-Z2-2">
          <mxGeometry x="479" y="37" width="60" height="30" as="geometry" />
        </mxCell>
        <mxCell id="oQ0Vf-gEsFm0dpcl0Elq-15" value="" style="edgeStyle=orthogonalEdgeStyle;rounded=0;orthogonalLoop=1;jettySize=auto;html=1;" edge="1" parent="S1r_7dUT1iqmqCOqu-Z2-2" source="oQ0Vf-gEsFm0dpcl0Elq-11" target="oQ0Vf-gEsFm0dpcl0Elq-14">
          <mxGeometry relative="1" as="geometry" />
        </mxCell>
        <mxCell id="oQ0Vf-gEsFm0dpcl0Elq-11" value="Realizar Aprestamento" style="rounded=1;whiteSpace=wrap;html=1;" vertex="1" parent="S1r_7dUT1iqmqCOqu-Z2-2">
          <mxGeometry x="599" y="57" width="120" height="60" as="geometry" />
        </mxCell>
        <mxCell id="oQ0Vf-gEsFm0dpcl0Elq-17" value="" style="edgeStyle=orthogonalEdgeStyle;rounded=0;orthogonalLoop=1;jettySize=auto;html=1;" edge="1" parent="S1r_7dUT1iqmqCOqu-Z2-2" source="oQ0Vf-gEsFm0dpcl0Elq-14" target="oQ0Vf-gEsFm0dpcl0Elq-16">
          <mxGeometry relative="1" as="geometry" />
        </mxCell>
        <mxCell id="oQ0Vf-gEsFm0dpcl0Elq-14" value="Realizar Teste" style="whiteSpace=wrap;html=1;rounded=1;" vertex="1" parent="S1r_7dUT1iqmqCOqu-Z2-2">
          <mxGeometry x="599" y="167" width="120" height="60" as="geometry" />
        </mxCell>
        <mxCell id="oQ0Vf-gEsFm0dpcl0Elq-20" style="edgeStyle=orthogonalEdgeStyle;rounded=0;orthogonalLoop=1;jettySize=auto;html=1;" edge="1" parent="S1r_7dUT1iqmqCOqu-Z2-2" source="oQ0Vf-gEsFm0dpcl0Elq-16" target="oQ0Vf-gEsFm0dpcl0Elq-19">
          <mxGeometry relative="1" as="geometry" />
        </mxCell>
        <mxCell id="oQ0Vf-gEsFm0dpcl0Elq-16" value="Enviar documentações ao time de Projeto" style="whiteSpace=wrap;html=1;rounded=1;" vertex="1" parent="S1r_7dUT1iqmqCOqu-Z2-2">
          <mxGeometry x="759" y="167" width="120" height="60" as="geometry" />
        </mxCell>
        <mxCell id="oQ0Vf-gEsFm0dpcl0Elq-23" style="edgeStyle=orthogonalEdgeStyle;rounded=0;orthogonalLoop=1;jettySize=auto;html=1;entryX=0.5;entryY=1;entryDx=0;entryDy=0;" edge="1" parent="S1r_7dUT1iqmqCOqu-Z2-2" source="oQ0Vf-gEsFm0dpcl0Elq-19" target="oQ0Vf-gEsFm0dpcl0Elq-14">
          <mxGeometry relative="1" as="geometry" />
        </mxCell>
        <mxCell id="oQ0Vf-gEsFm0dpcl0Elq-24" value="Repetir Teste" style="edgeLabel;html=1;align=center;verticalAlign=middle;resizable=0;points=[];" vertex="1" connectable="0" parent="oQ0Vf-gEsFm0dpcl0Elq-23">
          <mxGeometry x="-0.1" y="-1" relative="1" as="geometry">
            <mxPoint x="27" y="1" as="offset" />
          </mxGeometry>
        </mxCell>
        <mxCell id="oQ0Vf-gEsFm0dpcl0Elq-28" value="" style="edgeStyle=orthogonalEdgeStyle;rounded=0;orthogonalLoop=1;jettySize=auto;html=1;" edge="1" parent="S1r_7dUT1iqmqCOqu-Z2-2" source="oQ0Vf-gEsFm0dpcl0Elq-19" target="oQ0Vf-gEsFm0dpcl0Elq-27">
          <mxGeometry relative="1" as="geometry" />
        </mxCell>
        <mxCell id="oQ0Vf-gEsFm0dpcl0Elq-29" value="Sim" style="edgeLabel;html=1;align=center;verticalAlign=middle;resizable=0;points=[];" vertex="1" connectable="0" parent="oQ0Vf-gEsFm0dpcl0Elq-28">
          <mxGeometry x="-0.405" relative="1" as="geometry">
            <mxPoint x="16" as="offset" />
          </mxGeometry>
        </mxCell>
        <mxCell id="oQ0Vf-gEsFm0dpcl0Elq-30" style="edgeStyle=orthogonalEdgeStyle;rounded=0;orthogonalLoop=1;jettySize=auto;html=1;exitX=0.5;exitY=1;exitDx=0;exitDy=0;" edge="1" parent="S1r_7dUT1iqmqCOqu-Z2-2" source="oQ0Vf-gEsFm0dpcl0Elq-19">
          <mxGeometry relative="1" as="geometry">
            <mxPoint x="349" y="120" as="targetPoint" />
            <Array as="points">
              <mxPoint x="819" y="330" />
              <mxPoint x="350" y="330" />
            </Array>
          </mxGeometry>
        </mxCell>
        <mxCell id="oQ0Vf-gEsFm0dpcl0Elq-31" value="Repetir teste com mudança de pré requisitos" style="edgeLabel;html=1;align=center;verticalAlign=middle;resizable=0;points=[];" vertex="1" connectable="0" parent="oQ0Vf-gEsFm0dpcl0Elq-30">
          <mxGeometry x="-0.2575" y="-2" relative="1" as="geometry">
            <mxPoint as="offset" />
          </mxGeometry>
        </mxCell>
        <mxCell id="oQ0Vf-gEsFm0dpcl0Elq-19" value="" style="rhombus;whiteSpace=wrap;html=1;" vertex="1" parent="S1r_7dUT1iqmqCOqu-Z2-2">
          <mxGeometry x="799" y="260" width="40" height="40" as="geometry" />
        </mxCell>
        <mxCell id="oQ0Vf-gEsFm0dpcl0Elq-27" value="" style="ellipse;whiteSpace=wrap;html=1;" vertex="1" parent="S1r_7dUT1iqmqCOqu-Z2-2">
          <mxGeometry x="919" y="265" width="30" height="30" as="geometry" />
        </mxCell>
        <mxCell id="oQ0Vf-gEsFm0dpcl0Elq-34" style="edgeStyle=orthogonalEdgeStyle;rounded=0;orthogonalLoop=1;jettySize=auto;html=1;entryX=0;entryY=0.5;entryDx=0;entryDy=0;" edge="1" parent="S1r_7dUT1iqmqCOqu-Z2-2" source="oQ0Vf-gEsFm0dpcl0Elq-32" target="S1r_7dUT1iqmqCOqu-Z2-1">
          <mxGeometry relative="1" as="geometry" />
        </mxCell>
        <mxCell id="oQ0Vf-gEsFm0dpcl0Elq-32" value="Receber os Pré requisitos do Ensaio" style="rounded=1;whiteSpace=wrap;html=1;" vertex="1" parent="S1r_7dUT1iqmqCOqu-Z2-2">
          <mxGeometry x="140" y="57" width="120" height="60" as="geometry" />
        </mxCell>
      </root>
    </mxGraphModel>
  </diagram>
</mxfile>
